<?xml version="1.0" encoding="UTF-8" standalone="no"?>
<!-- Created with Inkscape (http://www.inkscape.org/) -->

<svg
   width="210mm"
   height="297mm"
   viewBox="0 0 210 297"
   version="1.1"
   id="svg1"
   xml:space="preserve"
   inkscape:version="1.3.2 (091e20e, 2023-11-25, custom)"
   sodipodi:docname="sendipede_logo.svg"
   xmlns:inkscape="http://www.inkscape.org/namespaces/inkscape"
   xmlns:sodipodi="http://sodipodi.sourceforge.net/DTD/sodipodi-0.dtd"
   xmlns:xlink="http://www.w3.org/1999/xlink"
   xmlns="http://www.w3.org/2000/svg"
   xmlns:svg="http://www.w3.org/2000/svg"><sodipodi:namedview
     id="namedview1"
     pagecolor="#ffffff"
     bordercolor="#666666"
     borderopacity="1.0"
     inkscape:showpageshadow="2"
     inkscape:pageopacity="0.0"
     inkscape:pagecheckerboard="0"
     inkscape:deskcolor="#d1d1d1"
     inkscape:document-units="mm"
     inkscape:zoom="0.3587441"
     inkscape:cx="405.58158"
     inkscape:cy="944.96327"
     inkscape:window-width="1726"
     inkscape:window-height="1308"
     inkscape:window-x="488"
     inkscape:window-y="39"
     inkscape:window-maximized="1"
     inkscape:current-layer="layer2"
     showgrid="false" /><defs
     id="defs1"><linearGradient
       id="linearGradient14"
       inkscape:collect="always"><stop
         style="stop-color:#118ecd;stop-opacity:1;"
         offset="0.33333334"
         id="stop14" /><stop
         style="stop-color:#08578f;stop-opacity:1;"
         offset="0.6695652"
         id="stop15" /></linearGradient><inkscape:path-effect
       effect="powerstroke"
       id="path-effect19"
       is_visible="true"
       lpeversion="1.3"
       scale_width="1"
       interpolator_type="CentripetalCatmullRom"
       interpolator_beta="0.2"
       start_linecap_type="zerowidth"
       end_linecap_type="round"
       offset_points="0.19877705,0.5820505 | 0.50967957,0.54392134 | 0.79260694,0.70262582"
       linejoin_type="round"
       miter_limit="4"
       not_jump="false"
       sort_points="true"
       message="&lt;b&gt;Strg + Klick&lt;/b&gt; und Verschieben eines Anfassers" /><inkscape:path-effect
       effect="powerstroke"
       id="path-effect17"
       is_visible="true"
       lpeversion="1.3"
       scale_width="1"
       interpolator_type="CentripetalCatmullRom"
       interpolator_beta="0.2"
       start_linecap_type="zerowidth"
       end_linecap_type="round"
       offset_points="0.2,0.9325 | 0.5,0.9325 | 0.8,0.9325"
       linejoin_type="round"
       miter_limit="4"
       not_jump="false"
       sort_points="true"
       message="&lt;b&gt;Strg + Klick&lt;/b&gt; und Verschieben eines Anfassers" /><inkscape:path-effect
       effect="powerstroke"
       id="path-effect15"
       is_visible="true"
       lpeversion="1.3"
       scale_width="1"
       interpolator_type="CentripetalCatmullRom"
       interpolator_beta="0.2"
       start_linecap_type="round"
       end_linecap_type="peak"
       offset_points="0.2,0.9325 | 0.5,0.9325 | 0.8,0.9325"
       linejoin_type="round"
       miter_limit="4"
       not_jump="false"
       sort_points="true"
       message="&lt;b&gt;Strg + Klick&lt;/b&gt; und Verschieben eines Anfassers" /><inkscape:path-effect
       effect="powerstroke"
       id="path-effect13"
       is_visible="true"
       lpeversion="1.3"
       scale_width="1"
       interpolator_type="CentripetalCatmullRom"
       interpolator_beta="0.2"
       start_linecap_type="zerowidth"
       end_linecap_type="round"
       offset_points="0.2,0.9325 | 0.5,0.9325 | 0.8,0.9325"
       linejoin_type="round"
       miter_limit="4"
       not_jump="false"
       sort_points="true"
       message="&lt;b&gt;Strg + Klick&lt;/b&gt; und Verschieben eines Anfassers" /><inkscape:path-effect
       effect="powerstroke"
       id="path-effect11"
       is_visible="true"
       lpeversion="1.3"
       scale_width="1"
       interpolator_type="CentripetalCatmullRom"
       interpolator_beta="0.2"
       start_linecap_type="zerowidth"
       end_linecap_type="round"
       offset_points="0.2,0.9325 | 0.5,0.9325 | 0.8,0.9325"
       linejoin_type="round"
       miter_limit="4"
       not_jump="false"
       sort_points="true"
       message="&lt;b&gt;Strg + Klick&lt;/b&gt; und Verschieben eines Anfassers" /><inkscape:path-effect
       effect="powerstroke"
       id="path-effect9"
       is_visible="true"
       lpeversion="1.3"
       scale_width="1"
       interpolator_type="CentripetalCatmullRom"
       interpolator_beta="0.2"
       start_linecap_type="zerowidth"
       end_linecap_type="round"
       offset_points="0.2,0.9325 | 0.5,0.9325 | 0.8,0.9325"
       linejoin_type="round"
       miter_limit="4"
       not_jump="false"
       sort_points="true"
       message="&lt;b&gt;Strg + Klick&lt;/b&gt; und Verschieben eines Anfassers" /><inkscape:path-effect
       effect="powerstroke"
       id="path-effect7"
       is_visible="true"
       lpeversion="1.3"
       scale_width="2"
       interpolator_type="CentripetalCatmullRom"
       interpolator_beta="0.2"
       start_linecap_type="zerowidth"
       end_linecap_type="round"
       offset_points="0.2,0.9325 | 0.5,0.9325 | 0.8,0.9325"
       linejoin_type="extrp_arc"
       miter_limit="4.9"
       not_jump="true"
       sort_points="true"
       message="&lt;b&gt;Strg + Klick&lt;/b&gt; und Verschieben eines Anfassers" /><inkscape:path-effect
       effect="taper_stroke"
       start_shape="center | center"
       end_shape="center | center"
       id="path-effect6"
       is_visible="true"
       lpeversion="1"
       stroke_width="7.7"
       subpath="1"
       attach_start="0.7"
       end_offset="0.7"
       start_smoothing="0.4"
       end_smoothing="0.4"
       jointype="extrapolated"
       miter_limit="100" /><linearGradient
       id="linearGradient3"
       inkscape:collect="always"><stop
         style="stop-color:#ffffff;stop-opacity:1;"
         offset="0"
         id="stop3" /><stop
         style="stop-color:#fff146;stop-opacity:1;"
         offset="0.3014493"
         id="stop5" /><stop
         style="stop-color:#f7960a;stop-opacity:1;"
         offset="0.62028986"
         id="stop6" /><stop
         style="stop-color:#e64011;stop-opacity:1;"
         offset="1"
         id="stop4" /></linearGradient><linearGradient
       id="linearGradient1"
       inkscape:collect="always"><stop
         style="stop-color:#34e5d1;stop-opacity:1;"
         offset="0"
         id="stop1" /><stop
         style="stop-color:#1078d2;stop-opacity:1;"
         offset="1"
         id="stop2" /></linearGradient><linearGradient
       inkscape:collect="always"
       xlink:href="#linearGradient1"
       id="linearGradient2"
       x1="173.21875"
       y1="70.986938"
       x2="34.026226"
       y2="227.71135"
       gradientUnits="userSpaceOnUse" /><linearGradient
       inkscape:collect="always"
       xlink:href="#linearGradient3"
       id="linearGradient4"
       x1="197.01343"
       y1="157.27756"
       x2="39.732628"
       y2="233.61156"
       gradientUnits="userSpaceOnUse"
       gradientTransform="matrix(0.99877782,0,0,1.1173488,-52.563907,-4.7245701)"
       spreadMethod="pad" /><linearGradient
       inkscape:collect="always"
       xlink:href="#linearGradient14"
       id="linearGradient15"
       x1="117.40207"
       y1="138.28555"
       x2="119.44875"
       y2="149.30246"
       gradientUnits="userSpaceOnUse" /><linearGradient
       inkscape:collect="always"
       xlink:href="#linearGradient14"
       id="linearGradient21"
       gradientUnits="userSpaceOnUse"
       x1="117.40207"
       y1="138.28555"
       x2="119.44875"
       y2="149.30246" /><linearGradient
       inkscape:collect="always"
       xlink:href="#linearGradient14"
       id="linearGradient24"
       gradientUnits="userSpaceOnUse"
       x1="117.40207"
       y1="138.28555"
       x2="119.44875"
       y2="149.30246" /><linearGradient
       inkscape:collect="always"
       xlink:href="#linearGradient14"
       id="linearGradient27"
       gradientUnits="userSpaceOnUse"
       x1="117.40207"
       y1="138.28555"
       x2="119.44875"
       y2="149.30246" /><filter
       inkscape:collect="always"
       style="color-interpolation-filters:sRGB"
       id="filter30"
       x="-0.047228854"
       y="-0.048819702"
       width="1.0944577"
       height="1.0976394"><feGaussianBlur
         inkscape:collect="always"
         stdDeviation="0.14001318"
         id="feGaussianBlur30" /></filter><filter
       inkscape:collect="always"
       style="color-interpolation-filters:sRGB"
       id="filter31"
       x="-0.047228854"
       y="-0.048819702"
       width="1.0944577"
       height="1.0976394"><feGaussianBlur
         inkscape:collect="always"
         stdDeviation="0.14001318"
         id="feGaussianBlur31" /></filter><filter
       inkscape:collect="always"
       style="color-interpolation-filters:sRGB"
       id="filter32"
       x="-0.047228854"
       y="-0.048819702"
       width="1.0944577"
       height="1.0976394"><feGaussianBlur
         inkscape:collect="always"
         stdDeviation="0.14001318"
         id="feGaussianBlur32" /></filter><filter
       inkscape:collect="always"
       style="color-interpolation-filters:sRGB"
       id="filter33"
       x="-0.047228854"
       y="-0.048819702"
       width="1.0944577"
       height="1.0976394"><feGaussianBlur
         inkscape:collect="always"
         stdDeviation="0.14001318"
         id="feGaussianBlur33" /></filter></defs><g
     inkscape:groupmode="layer"
     id="layer2"
     inkscape:label="Background"
     inkscape:highlight-color="#2bcbd1"><ellipse
       style="opacity:1;fill:url(#linearGradient2);fill-opacity:1;stroke:none;stroke-width:0.2;stroke-linecap:round;stroke-linejoin:round;stroke-miterlimit:4;stroke-dasharray:none;stroke-opacity:1"
       id="path1"
       cx="103.80687"
       cy="149.16476"
       rx="104.91317"
       ry="104.5444"
       inkscape:label="Background"
       inkscape:export-filename="path1.png"
       inkscape:export-xdpi="61.978874"
       inkscape:export-ydpi="61.978874" /><ellipse
       style="display:inline;opacity:0.6;mix-blend-mode:normal;fill:#066ecb;fill-opacity:1;stroke:none;stroke-width:6.46479;stroke-linecap:round;stroke-linejoin:round;stroke-dasharray:none;stroke-opacity:1;filter:url(#filter30)"
       id="ellipse27"
       inkscape:label="circlet4"
       transform="matrix(-0.8628001,-0.50554524,0.48870473,-0.87244925,0,0)"
       cx="-216.82533"
       cy="-7.1977129"
       rx="3.5574822"
       ry="3.4415574" /><ellipse
       style="display:inline;opacity:0.6;mix-blend-mode:normal;fill:#066ecb;fill-opacity:1;stroke:none;stroke-width:6.46479;stroke-linecap:round;stroke-linejoin:round;stroke-dasharray:none;stroke-opacity:1;filter:url(#filter31)"
       id="ellipse28"
       inkscape:label="circlet3"
       transform="matrix(-0.8628001,-0.50554524,0.48870473,-0.87244925,0,0)"
       cx="-140.48988"
       cy="-1.0819376"
       rx="3.5574822"
       ry="3.4415574" /><ellipse
       style="display:inline;opacity:0.8;mix-blend-mode:normal;fill:#066ecb;fill-opacity:1;stroke:none;stroke-width:6.46479;stroke-linecap:round;stroke-linejoin:round;stroke-dasharray:none;stroke-opacity:1;filter:url(#filter32)"
       id="ellipse30"
       inkscape:label="circlet2"
       transform="matrix(-0.8628001,-0.50554524,0.48870473,-0.87244925,0,0)"
       cx="-87.316422"
       cy="-55.548195"
       rx="3.5574822"
       ry="3.4415574" /><ellipse
       style="display:inline;opacity:1;mix-blend-mode:normal;fill:#066ecb;fill-opacity:1;stroke:none;stroke-width:6.46479;stroke-linecap:round;stroke-linejoin:round;stroke-dasharray:none;stroke-opacity:1;filter:url(#filter33)"
       id="ellipse29"
       inkscape:label="circlet1"
       transform="matrix(-0.86280011,-0.50554525,0.48870473,-0.87244925,0,0)"
       cx="-96.119499"
       cy="-146.88553"
       rx="3.5574822"
       ry="3.4415574" /></g><g
     id="g2"
     inkscape:label="Body"
     style="display:inline;opacity:1"
     inkscape:highlight-color="#012138"><ellipse
       style="display:inline;opacity:1;fill:#012138;fill-opacity:1;stroke:#012138;stroke-width:1.72646;stroke-linecap:round;stroke-linejoin:round;stroke-dasharray:none;stroke-opacity:1"
       id="ellipse6"
       cx="40.020432"
       cy="205.05144"
       rx="9.3601961"
       ry="9.728961"
       inkscape:label="Body8" /><path
       style="display:inline;opacity:1;fill:#ffffff;fill-rule:nonzero;stroke:none;stroke-width:1.865;stroke-linecap:butt;stroke-linejoin:miter;stroke-dasharray:none;stroke-opacity:1"
       d="m 109.40576,122.68952 c -0.60203,0.13755 -2.28589,0.39959 -3.50483,0.69807 -0.2691,0.0659 -0.54585,0.14104 -0.82698,0.21935 -1.30131,0.36252 -2.5382,0.73628 -3.77121,0.76089 -0.0472,9.4e-4 -0.094,0.001 -0.14061,0.001 -1.203067,-0.004 -2.291486,-0.29594 -3.313217,-0.79163 -0.191461,-0.0929 -0.378698,-0.19187 -0.56272,-0.29599 -1.181826,-0.66865 -2.103503,-1.52181 -2.767916,-2.26727 a 0.70262582,0.70262582 90 0 0 -1.049054,0.935 c 0.702362,0.78804 1.7568,1.84256 3.147676,2.5679 0.220135,0.1148 0.446675,0.21941 0.679135,0.31355 1.25567,0.50849 2.544954,0.66021 3.879046,0.6262 0.0518,-0.001 0.10381,-0.003 0.15614,-0.004 1.34911,-0.0431 2.74499,-0.21755 4.10058,-0.65146 0.2922,-0.0935 0.57334,-0.19684 0.83778,-0.30908 1.21887,-0.51732 2.58235,-1.4702 3.13618,-1.80226 z"
       id="path17"
       sodipodi:nodetypes="cc"
       inkscape:path-effect="#path-effect19"
       inkscape:original-d="m 109.40576,122.68952 c -5.69321,2.28952 -10.739526,4.03458 -15.41201,-1.20788"
       inkscape:label="glint8"
       transform="translate(-60.458326,89.654941)" /><ellipse
       style="display:inline;opacity:1;fill:#012138;fill-opacity:1;stroke:#012138;stroke-width:2.01712;stroke-linecap:round;stroke-linejoin:round;stroke-dasharray:none;stroke-opacity:1"
       id="ellipse5"
       cx="33.843647"
       cy="191.21007"
       rx="11.335258"
       ry="10.966496"
       inkscape:label="Body7" /><path
       style="display:inline;opacity:1;fill:#ffffff;fill-rule:nonzero;stroke:none;stroke-width:1.865;stroke-linecap:butt;stroke-linejoin:miter;stroke-dasharray:none;stroke-opacity:1"
       d="m 99.596885,124.05315 c -0.411205,-0.17307 -1.4832,-0.85589 -2.293916,-1.15675 -0.172977,-0.0642 -0.353301,-0.11959 -0.538084,-0.17019 -0.873746,-0.23922 -1.742268,-0.35846 -2.546516,-0.73532 -0.789269,-0.36984 -1.491669,-0.83923 -2.109431,-1.42312 -0.130381,-0.12323 -0.253449,-0.24822 -0.369745,-0.37417 -0.621125,-0.6727 -1.035025,-1.35965 -1.299347,-1.8632 a 0.9325,0.9325 90 0 0 -1.651324,0.8668 c 0.31091,0.59231 0.812741,1.43013 1.580431,2.26158 0.144034,0.15599 0.29679,0.31115 0.45891,0.46438 0.771741,0.72943 1.642216,1.30811 2.599164,1.75652 0.942469,0.44163 1.92502,0.87891 2.944916,1.01751 0.216843,0.0295 0.429529,0.0439 0.635018,0.0406 1.025169,-0.0168 2.119243,-0.53214 2.589924,-0.68461 z"
       id="path15"
       sodipodi:nodetypes="cc"
       inkscape:path-effect="#path-effect17"
       inkscape:original-d="m 99.596885,124.05315 c -4.17817,-0.17792 -7.892095,-1.3066 -9.982701,-5.28935"
       inkscape:label="glint7"
       transform="matrix(1.6901889,0,0,0.65366233,-123.34844,120.80905)" /><ellipse
       style="display:inline;opacity:1;fill:#012138;fill-opacity:1;stroke:#012138;stroke-width:2.41077;stroke-linecap:round;stroke-linejoin:round;stroke-dasharray:none;stroke-opacity:1"
       id="ellipse4"
       cx="33.198311"
       cy="172.60025"
       rx="12.521295"
       ry="14.180732"
       inkscape:label="Body6" /><path
       style="display:inline;opacity:1;fill:#ffffff;fill-rule:nonzero;stroke:none;stroke-width:1.865;stroke-linecap:butt;stroke-linejoin:miter;stroke-dasharray:none;stroke-opacity:1"
       d="m 99.912872,126.84279 c -0.492722,-0.17746 -1.231269,-0.50604 -2.056804,-1.15446 -0.155905,-0.12246 -0.315033,-0.25636 -0.476536,-0.40294 -0.767065,-0.69619 -1.486396,-1.5865 -2.137984,-2.67727 -0.806118,-1.34947 -1.444598,-2.89841 -1.934808,-4.53573 -0.440515,-1.47133 -0.699186,-2.8085 -0.84789,-3.69412 l -1.07404,-0.76522 -0.765212,1.07404 c 0.155997,0.92906 0.429893,2.34837 0.900505,3.92022 0.523328,1.74792 1.217582,3.44596 2.120359,4.95723 0.731409,1.2244 1.562937,2.2644 2.485667,3.10186 0.194436,0.17647 0.387395,0.33893 0.577932,0.48859 1.016398,0.79834 1.942065,1.21384 2.576837,1.44246 a 0.9325,0.9325 90 0 0 0.631974,-1.75466 z"
       id="path13"
       sodipodi:nodetypes="cc"
       inkscape:path-effect="#path-effect15"
       inkscape:original-d="m 99.596885,127.72012 c -4.132983,-1.48857 -6.930143,-6.47239 -8.057661,-13.18744"
       inkscape:label="glint6"
       transform="matrix(1.6901889,0,0,0.65366233,-130.53932,102.55527)" /><ellipse
       style="display:inline;opacity:1;fill:#012138;fill-opacity:1;stroke:#012138;stroke-width:2.41077;stroke-linecap:round;stroke-linejoin:round;stroke-dasharray:none;stroke-opacity:1"
       id="ellipse1"
       cx="37.960815"
       cy="154.60883"
       rx="12.521295"
       ry="14.180732"
       inkscape:label="Body5" /><path
       style="display:inline;opacity:1;fill:#ffffff;fill-rule:nonzero;stroke:none;stroke-width:1.865;stroke-linecap:butt;stroke-linejoin:miter;stroke-dasharray:none;stroke-opacity:1"
       d="m 101.77867,135.33614 c -0.51379,-0.64523 -1.64951,-2.47013 -2.469872,-3.58402 -0.177831,-0.24146 -0.364619,-0.48096 -0.5534,-0.71785 -0.893733,-1.12152 -1.750639,-2.10384 -2.385391,-3.3461 -0.629664,-1.23229 -1.126426,-2.59733 -1.574648,-4.22209 -0.09436,-0.34204 -0.184055,-0.68654 -0.269572,-1.03055 -0.436318,-1.75515 -0.816988,-3.73252 -1.049701,-4.97209 a 0.9325,0.9325 90 0 0 -1.832978,0.34412 c 0.232797,1.24001 0.62206,3.26488 1.072766,5.07791 0.08882,0.35728 0.182523,0.71728 0.281642,1.07658 0.47056,1.70573 1.007981,3.19742 1.711732,4.57471 0.699766,1.3695 1.441375,2.68065 2.530494,3.82408 0.229238,0.24066 0.467961,0.46659 0.714797,0.67354 1.173203,0.98365 3.019841,1.84212 3.824131,2.30176 z"
       id="path11"
       sodipodi:nodetypes="cc"
       inkscape:path-effect="#path-effect13"
       inkscape:original-d="m 101.77867,135.33614 c -6.149528,-5.27238 -7.414895,-8.09053 -9.219073,-17.70064"
       inkscape:label="glint5"
       transform="translate(-65.086727,38.351386)" /><ellipse
       style="display:inline;opacity:1;fill:#012138;fill-opacity:1;stroke:#012138;stroke-width:3.28266;stroke-linecap:round;stroke-linejoin:round;stroke-dasharray:none;stroke-opacity:1"
       id="ellipse2-5"
       cx="59.940681"
       cy="146.08531"
       rx="16.602701"
       ry="19.829382"
       inkscape:label="Body4" /><path
       style="display:inline;opacity:1;fill:#ffffff;fill-opacity:1;fill-rule:nonzero;stroke:none;stroke-width:1.865;stroke-linecap:butt;stroke-linejoin:miter;stroke-dasharray:none;stroke-opacity:1"
       d="m 101.22553,139.20816 c -0.66479,-0.98088 -2.101492,-3.59797 -3.023863,-5.16602 -0.199935,-0.3399 -0.406973,-0.67929 -0.609776,-1.00958 -0.964727,-1.5712 -1.7748,-2.86681 -2.276861,-4.32483 -0.497357,-1.44436 -0.796945,-2.9453 -1.048661,-4.7024 -0.05293,-0.36944 -0.102638,-0.74274 -0.149736,-1.11293 -0.215203,-1.69153 -0.505683,-4.33 -0.631277,-5.36882 a 0.9325,0.9325 90 0 0 -1.851518,0.22384 c 0.124613,1.03071 0.413265,3.6555 0.632708,5.38036 0.04799,0.37723 0.09902,0.76055 0.15367,1.14202 0.259302,1.81005 0.579269,3.44163 1.13143,5.04514 0.551758,1.60234 1.205473,3.21403 2.362456,4.8332 0.243112,0.34023 0.502157,0.67064 0.775688,0.98599 1.306549,1.5063 3.48891,3.17046 4.53574,4.07403 z"
       id="path9"
       sodipodi:nodetypes="cc"
       inkscape:path-effect="#path-effect11"
       inkscape:original-d="m 101.22553,139.20816 c -7.808967,-8.77563 -7.4149,-11.22502 -8.665933,-21.57266"
       inkscape:label="glint4"
       transform="translate(-47.017324,20.650746)" /><ellipse
       style="opacity:1;fill:#012138;fill-opacity:1;stroke:#012138;stroke-width:4.0096;stroke-linecap:round;stroke-linejoin:round;stroke-dasharray:none;stroke-opacity:1"
       id="ellipse3"
       cx="87.597931"
       cy="133.63954"
       rx="20.480009"
       ry="23.983261"
       inkscape:label="Body3" /><path
       style="display:inline;opacity:1;fill:#ffffff;fill-rule:nonzero;stroke:none;stroke-width:1.865;stroke-linecap:butt;stroke-linejoin:miter;stroke-dasharray:none;stroke-opacity:1"
       d="m 102.33182,140.86759 c -0.80376,-1.33917 -2.624272,-4.90815 -3.808899,-7.17173 -0.25602,-0.4892 -0.524731,-0.99272 -0.782275,-1.47868 -1.234472,-2.3293 -2.243536,-4.34164 -2.771461,-6.45146 -0.523557,-2.09236 -0.681273,-4.16305 -0.573443,-6.43257 0.02275,-0.47875 0.05677,-0.95424 0.09923,-1.42393 0.21746,-2.40588 0.69261,-4.94624 1.007764,-6.54694 A 0.9325,0.9325 90 0 0 93.672859,111.002 c -0.31626,1.60633 -0.80841,4.22891 -1.03532,6.73933 -0.04456,0.49298 -0.08055,0.9951 -0.104696,1.50331 -0.114844,2.41715 0.05167,4.67404 0.62712,6.97379 0.57197,2.28584 1.407499,4.60842 2.824336,6.98768 0.298241,0.50083 0.61509,0.99072 0.947707,1.463 1.603518,2.27685 4.160064,4.84048 5.399814,6.19848 z"
       id="path8"
       sodipodi:nodetypes="cc"
       inkscape:path-effect="#path-effect9"
       inkscape:original-d="M 102.33182,140.86759 C 93.047799,128.40432 92.151194,123.55797 94.587795,111.18214"
       inkscape:label="glint3"
       transform="translate(-23.969616,10.878518)" /><ellipse
       style="opacity:1;fill:#012138;fill-opacity:1;stroke:#012138;stroke-width:4.10031;stroke-linecap:round;stroke-linejoin:round;stroke-dasharray:none;stroke-opacity:1"
       id="ellipse2"
       cx="113.7635"
       cy="121.78407"
       rx="20.434652"
       ry="25.136385"
       inkscape:label="Body2" /><path
       style="display:inline;opacity:1;fill:#ffffff;fill-opacity:1;fill-rule:nonzero;stroke:none;stroke-width:1.865;stroke-linecap:butt;stroke-linejoin:miter;stroke-dasharray:none;stroke-opacity:1"
       d="m 102.33182,140.86759 c -0.62498,-1.64593 -1.73502,-6.11709 -2.57568,-8.9443 -0.181575,-0.61065 -0.378528,-1.22611 -0.57509,-1.83189 -0.931278,-2.87009 -1.774098,-5.36844 -1.869969,-7.88111 -0.09451,-2.47711 0.285848,-4.81658 1.083078,-7.17217 0.168564,-0.49806 0.35158,-0.98436 0.545018,-1.45807 1.013391,-2.48166 2.363813,-4.72103 3.302913,-6.18472 a 1.865,1.865 90 0 0 -3.139396,-2.01422 c -0.982011,1.53056 -2.475294,3.99366 -3.616702,6.78883 -0.219855,0.5384 -0.429985,1.09629 -0.624969,1.67242 -0.928642,2.74387 -1.390685,5.53657 -1.27723,8.51014 0.112294,2.94311 0.524215,6.04407 1.824392,9.14771 0.273794,0.65357 0.580465,1.28755 0.918976,1.89107 1.66625,2.9707 4.645759,5.92023 6.004659,7.47631 z"
       id="path7"
       sodipodi:nodetypes="cc"
       inkscape:path-effect="#path-effect7"
       inkscape:original-d="m 102.33182,140.86759 c -8.915257,-14.86023 -8.889954,-23.20983 -1.65943,-34.47937"
       inkscape:label="glint2" /><ellipse
       style="opacity:1;fill:#ffffff;fill-opacity:1;stroke:#012138;stroke-width:3.92915;stroke-linecap:round;stroke-linejoin:round;stroke-dasharray:none;stroke-opacity:1"
       id="path2"
       cx="143.54114"
       cy="114.86977"
       rx="23.193766"
       ry="20.335852"
       inkscape:label="Body1" /></g><g
     id="g10"
     inkscape:label="envelope"
     transform="translate(-4.7625003,1.5875)"
     style="display:inline"
     inkscape:highlight-color="#e94d10"><rect
       style="display:inline;fill:url(#linearGradient4);stroke:#000000;stroke-width:3.697;stroke-linecap:round;stroke-linejoin:round;stroke-dasharray:none;stroke-opacity:1"
       id="rect1"
       width="161.32094"
       height="89.412079"
       x="-14.99602"
       y="168.74312"
       transform="rotate(-16.485372)"
       rx="14"
       inkscape:label="envelope-back" /><path
       style="fill:#f84300;fill-opacity:0.589928;fill-rule:nonzero;stroke:none;stroke-width:7.297;stroke-linecap:butt;stroke-linejoin:miter;stroke-dasharray:none;stroke-opacity:1"
       d="m 99.08728,190.39436 c -14.328006,-3.34858 -25.592478,-6.61845 -39.746925,-11.16922 -11.275481,-3.96832 -19.714883,-6.71156 -19.714883,-6.71156 0,0 7.702474,4.3971 18.273459,10.09271 12.069301,6.0913 25.805697,12.07796 39.430001,15.28461 12.005038,2.81584 23.918548,4.1605 32.645638,1.54237 a 26.431278,26.431278 0 0 0 0.0183,-0.005 28.230384,28.230384 0 0 0 0.0181,-0.006 c 9.1342,-2.83901 18.13623,-10.72779 25.9885,-19.79094 8.85462,-10.24216 15.90069,-22.79384 21.50028,-34.53201 4.60295,-10.49808 7.78163,-18.29016 7.79064,-18.31225 0,0 0,0 0,0 0,0 0,0 0,0 1e-5,-3e-5 1e-5,-3e-5 1e-5,-3e-5 0,0 1e-5,-10e-6 -2e-5,2e-5 0,0 0,0 0,0 0,0 0,0 0,0 -0.0136,0.0198 -4.79902,7.00541 -10.98379,16.52427 -8.03406,11.52591 -15.04201,20.8162 -24.12671,31.27794 -7.51223,8.67068 -15.21541,15.23005 -22.45431,17.47998 l 0.0364,-0.0111 c -6.76097,2.02829 -17.10639,1.04975 -28.67471,-1.66365 z"
       id="path6-9"
       sodipodi:nodetypes="ccc"
       transform="translate(-0.52916667,0.52916667)"
       inkscape:original-d="m 39.62545,172.51357 c 0,0 63.4294,30.9761 89.24283,23.23207 27.28849,-8.48157 56.42213,-68.95872 56.42213,-68.95872"
       inkscape:path-effect="#path-effect6"
       inkscape:label="flap-shadow" /><path
       style="fill:none;stroke:#000000;stroke-width:3.69706;stroke-linecap:butt;stroke-linejoin:miter;stroke-dasharray:none;stroke-opacity:1"
       d="m 38.351392,170.73742 c 0,0 63.429398,30.9761 89.242828,23.23207 27.28849,-8.48157 56.42213,-68.95872 56.42213,-68.95872"
       id="path6"
       sodipodi:nodetypes="ccc"
       inkscape:label="flap" /></g><g
     id="g11"
     inkscape:label="feet"
     inkscape:highlight-color="#1086c4"><g
       id="g24"
       inkscape:label="foot4"
       transform="matrix(0.90293251,0,0,0.7897002,-46.003193,46.450998)"><path
         style="display:inline;opacity:1;fill:#ea3803;fill-opacity:1;stroke:none;stroke-width:0.264584px;stroke-linecap:butt;stroke-linejoin:miter;stroke-opacity:1"
         d="m 119.85871,138.87285 c 0,0 0.77299,9.23952 1.32613,13.84128 0.14082,1.17148 0.22831,2.35672 0.50705,3.50324 0.29961,1.23235 0.74151,2.43123 1.24458,3.59544 0.43346,1.00312 1.01091,1.93769 1.52116,2.90402 0.5039,0.9543 1.11946,1.85627 1.52114,2.85791 0.33858,0.84431 0.78776,1.71916 0.73752,2.62743 -0.043,0.77775 -0.3908,1.55696 -0.8758,2.16648 -0.35032,0.44032 -0.84623,0.79885 -1.38286,0.96801 -0.60082,0.1894 -1.28242,0.16678 -1.88992,1e-5 -1.65427,-0.4541 -3.14096,-1.49005 -4.42519,-2.62741 -1.714,-1.51805 -3.09144,-3.43297 -4.19467,-5.43925 -1.79466,-3.26367 -3.04525,-6.85782 -3.81666,-10.50162 -0.75153,-3.54987 -0.74679,-10.85999 -0.74679,-10.85999 z"
         id="path22"
         sodipodi:nodetypes="caaaaaaaaaaaacc"
         inkscape:label="shadow4" /><path
         style="display:inline;opacity:1;fill:#012138;fill-opacity:1;stroke:none;stroke-width:0.266769px;stroke-linecap:butt;stroke-linejoin:miter;stroke-opacity:1"
         d="m 121.90927,137.65833 c 0,0 0.51297,7.53616 0.93501,11.28753 0.13408,1.19171 0.2283,2.39581 0.50705,3.56135 0.29961,1.25279 0.7415,2.47155 1.24458,3.65508 0.43345,1.01975 1.01091,1.96983 1.52116,2.95219 0.50389,0.97013 1.11945,1.88706 1.52113,2.90531 0.33859,0.85831 0.78777,1.74768 0.73753,2.67102 -0.043,0.79065 -0.39081,1.58278 -0.87581,2.20241 -0.35031,0.44762 -0.84623,0.8121 -1.38285,0.98407 -0.60083,0.19254 -1.28242,0.16954 -1.88992,1e-5 -1.65428,-0.46164 -3.14096,-1.51477 -4.42519,-2.67099 -1.71401,-1.54323 -3.05885,-3.5085 -4.19467,-5.52948 -1.52245,-2.70894 -2.63119,-5.67415 -3.42553,-8.6877 -0.86873,-3.29571 -1.42894,-10.13235 -1.42894,-10.13235 z"
         id="path23"
         sodipodi:nodetypes="caaaaaaaaaaaacc"
         inkscape:label="foot4" /><path
         style="display:inline;opacity:1;fill:url(#linearGradient24);stroke:none;stroke-width:0.0905927px;stroke-linecap:butt;stroke-linejoin:miter;stroke-opacity:1"
         d="m 117.95073,139.65297 c 0.81071,0.4447 0.56773,1.76431 0.74816,2.6712 0.0862,0.43329 0.0713,0.88521 0.15826,1.31585 0.0935,0.46289 0.23144,0.9132 0.38846,1.35049 0.13529,0.37678 0.31552,0.72782 0.47478,1.09078 0.15727,0.35846 0.34941,0.69724 0.47477,1.07347 0.10569,0.31713 0.24589,0.64573 0.23021,0.98689 -0.0134,0.29213 -0.12198,0.58481 -0.27337,0.81376 -0.10933,0.16538 -0.26412,0.30005 -0.43161,0.36359 -0.18753,0.0711 -0.40027,0.0626 -0.58988,0 -0.51633,-0.17056 -0.98035,-0.55968 -1.38119,-0.98688 -0.53498,-0.57019 -0.95473,-1.29632 -1.30924,-2.04305 -0.47519,-1.0009 -0.96928,-2.08661 -1.06918,-3.20995 -0.0825,-0.92797 -0.20604,-2.05958 0.40145,-2.7659 0.49476,-0.57524 1.51314,-1.02515 2.17838,-0.66025 z"
         id="path24"
         sodipodi:nodetypes="aaaaaaaaaaaaaaa"
         inkscape:label="fglint4" /></g><g
       id="g21"
       inkscape:label="foot3"
       transform="matrix(0.91263925,0,0,0.92805533,-20.60661,18.93525)"><path
         style="display:inline;opacity:1;fill:#ea3803;fill-opacity:1;stroke:none;stroke-width:0.264584px;stroke-linecap:butt;stroke-linejoin:miter;stroke-opacity:1"
         d="m 119.85871,138.87285 c 0,0 0.77299,9.23952 1.32613,13.84128 0.14082,1.17148 0.22831,2.35672 0.50705,3.50324 0.29961,1.23235 0.74151,2.43123 1.24458,3.59544 0.43346,1.00312 1.01091,1.93769 1.52116,2.90402 0.5039,0.9543 1.11946,1.85627 1.52114,2.85791 0.33858,0.84431 0.78776,1.71916 0.73752,2.62743 -0.043,0.77775 -0.3908,1.55696 -0.8758,2.16648 -0.35032,0.44032 -0.84623,0.79885 -1.38286,0.96801 -0.60082,0.1894 -1.28242,0.16678 -1.88992,1e-5 -1.65427,-0.4541 -3.14096,-1.49005 -4.42519,-2.62741 -1.714,-1.51805 -3.09144,-3.43297 -4.19467,-5.43925 -1.79466,-3.26367 -3.04525,-6.85782 -3.81666,-10.50162 -0.75153,-3.54987 -0.74679,-10.85999 -0.74679,-10.85999 z"
         id="path16"
         sodipodi:nodetypes="caaaaaaaaaaaacc"
         inkscape:label="shadow3" /><path
         style="display:inline;opacity:1;fill:#012138;fill-opacity:1;stroke:none;stroke-width:0.208109px;stroke-linecap:butt;stroke-linejoin:miter;stroke-opacity:1"
         d="m 137.54011,138.52483 c 0,0 3.25127,4.8643 4.98334,7.22055 0.55024,0.74852 1.07808,1.52093 1.71687,2.19535 0.68661,0.72491 1.45713,1.37138 2.25579,1.97027 0.68814,0.51602 1.44763,0.92897 2.17373,1.38986 0.71706,0.45516 1.48977,0.83095 2.15567,1.35837 0.5613,0.44458 1.20996,0.86683 1.53121,1.50698 0.27508,0.54816 0.34295,1.21635 0.25086,1.82221 -0.0665,0.43765 -0.26427,0.8763 -0.56392,1.20147 -0.3355,0.36407 -0.80905,0.61484 -1.2885,0.73819 -1.30559,0.3359 -2.72465,0.20883 -4.04537,-0.0666 -1.76274,-0.36765 -3.43628,-1.16312 -4.98877,-2.07768 -2.08095,-1.22588 -3.97852,-2.78558 -5.68035,-4.50057 -1.86118,-1.87556 -4.87533,-6.25129 -4.87533,-6.25129 z"
         id="path18"
         sodipodi:nodetypes="caaaaaaaaaaaacc"
         transform="matrix(1.1043056,0.63134306,-0.63265563,1.1020145,57.661471,-101.33774)"
         inkscape:label="foot3" /><path
         style="display:inline;opacity:1;fill:url(#linearGradient21);stroke:none;stroke-width:0.0905927px;stroke-linecap:butt;stroke-linejoin:miter;stroke-opacity:1"
         d="m 117.95073,139.65297 c 0.81071,0.4447 0.56773,1.76431 0.74816,2.6712 0.0862,0.43329 0.0713,0.88521 0.15826,1.31585 0.0935,0.46289 0.23144,0.9132 0.38846,1.35049 0.13529,0.37678 0.31552,0.72782 0.47478,1.09078 0.15727,0.35846 0.34941,0.69724 0.47477,1.07347 0.10569,0.31713 0.24589,0.64573 0.23021,0.98689 -0.0134,0.29213 -0.12198,0.58481 -0.27337,0.81376 -0.10933,0.16538 -0.26412,0.30005 -0.43161,0.36359 -0.18753,0.0711 -0.40027,0.0626 -0.58988,0 -0.51633,-0.17056 -0.98035,-0.55968 -1.38119,-0.98688 -0.53498,-0.57019 -0.95473,-1.29632 -1.30924,-2.04305 -0.47519,-1.0009 -0.96928,-2.08661 -1.06918,-3.20995 -0.0825,-0.92797 -0.20604,-2.05958 0.40145,-2.7659 0.49476,-0.57524 1.51314,-1.02515 2.17838,-0.66025 z"
         id="path21"
         sodipodi:nodetypes="aaaaaaaaaaaaaaa"
         inkscape:label="fglint3" /></g><g
       id="g12"
       inkscape:label="foot2"><path
         style="display:inline;opacity:1;fill:#ea3803;fill-opacity:1;stroke:none;stroke-width:0.264584px;stroke-linecap:butt;stroke-linejoin:miter;stroke-opacity:1"
         d="m 119.85871,138.87285 c 0,0 0.77299,9.23952 1.32613,13.84128 0.14082,1.17148 0.22831,2.35672 0.50705,3.50324 0.29961,1.23235 0.74151,2.43123 1.24458,3.59544 0.43346,1.00312 1.01091,1.93769 1.52116,2.90402 0.5039,0.9543 1.11946,1.85627 1.52114,2.85791 0.33858,0.84431 0.78776,1.71916 0.73752,2.62743 -0.043,0.77775 -0.3908,1.55696 -0.8758,2.16648 -0.35032,0.44032 -0.84623,0.79885 -1.38286,0.96801 -0.60082,0.1894 -1.28242,0.16678 -1.88992,1e-5 -1.65427,-0.4541 -3.14096,-1.49005 -4.42519,-2.62741 -1.714,-1.51805 -3.09144,-3.43297 -4.19467,-5.43925 -1.79466,-3.26367 -3.04525,-6.85782 -3.81666,-10.50162 -0.75153,-3.54987 -0.74679,-10.85999 -0.74679,-10.85999 z"
         id="path12"
         sodipodi:nodetypes="caaaaaaaaaaaacc"
         inkscape:label="shadow2" /><path
         style="display:inline;opacity:1;fill:#012138;fill-opacity:1;stroke:none;stroke-width:0.208109px;stroke-linecap:butt;stroke-linejoin:miter;stroke-opacity:1"
         d="m 137.54011,138.52483 c 0,0 3.25127,4.8643 4.98334,7.22055 0.55024,0.74852 1.07808,1.52093 1.71687,2.19535 0.68661,0.72491 1.45713,1.37138 2.25579,1.97027 0.68814,0.51602 1.44763,0.92897 2.17373,1.38986 0.71706,0.45516 1.48977,0.83095 2.15567,1.35837 0.5613,0.44458 1.20996,0.86683 1.53121,1.50698 0.27508,0.54816 0.34295,1.21635 0.25086,1.82221 -0.0665,0.43765 -0.26427,0.8763 -0.56392,1.20147 -0.3355,0.36407 -0.80905,0.61484 -1.2885,0.73819 -1.30559,0.3359 -2.72465,0.20883 -4.04537,-0.0666 -1.76274,-0.36765 -3.43628,-1.16312 -4.98877,-2.07768 -2.08095,-1.22588 -3.97852,-2.78558 -5.68035,-4.50057 -1.86118,-1.87556 -4.87533,-6.25129 -4.87533,-6.25129 z"
         id="path10"
         sodipodi:nodetypes="caaaaaaaaaaaacc"
         transform="matrix(1.1043056,0.63134306,-0.63265563,1.1020145,57.661471,-101.33774)"
         inkscape:label="foot2" /><path
         style="display:inline;opacity:1;fill:url(#linearGradient15);stroke:none;stroke-width:0.0905927px;stroke-linecap:butt;stroke-linejoin:miter;stroke-opacity:1"
         d="m 117.95073,139.65297 c 0.81071,0.4447 0.56773,1.76431 0.74816,2.6712 0.0862,0.43329 0.0713,0.88521 0.15826,1.31585 0.0935,0.46289 0.23144,0.9132 0.38846,1.35049 0.13529,0.37678 0.31552,0.72782 0.47478,1.09078 0.15727,0.35846 0.34941,0.69724 0.47477,1.07347 0.10569,0.31713 0.24589,0.64573 0.23021,0.98689 -0.0134,0.29213 -0.12198,0.58481 -0.27337,0.81376 -0.10933,0.16538 -0.26412,0.30005 -0.43161,0.36359 -0.18753,0.0711 -0.40027,0.0626 -0.58988,0 -0.51633,-0.17056 -0.98035,-0.55968 -1.38119,-0.98688 -0.53498,-0.57019 -0.95473,-1.29632 -1.30924,-2.04305 -0.47519,-1.0009 -0.96928,-2.08661 -1.06918,-3.20995 -0.0825,-0.92797 -0.20604,-2.05958 0.40145,-2.7659 0.49476,-0.57524 1.51314,-1.02515 2.17838,-0.66025 z"
         id="path14"
         sodipodi:nodetypes="aaaaaaaaaaaaaaa"
         inkscape:label="fglint2" /></g><g
       id="g27"
       inkscape:label="foot1"
       transform="matrix(-0.79858839,0.50684813,0.60187755,0.67250064,157.03565,-19.430984)"><path
         style="display:inline;opacity:1;fill:#ea3803;fill-opacity:1;stroke:none;stroke-width:0.273205px;stroke-linecap:butt;stroke-linejoin:miter;stroke-opacity:1"
         d="m 125.07834,134.36886 c 0,0 1.08566,9.65437 1.79856,14.46811 0.18149,1.22544 0.30881,2.46352 0.63073,3.66734 0.34603,1.29394 0.83669,2.55752 1.38889,3.78692 0.4758,1.05929 1.09685,2.05171 1.6501,3.0751 0.54637,1.01065 1.20541,1.97031 1.64861,3.02704 0.37358,0.89075 0.86139,1.81685 0.83886,2.76189 -0.0193,0.80923 -0.35062,1.61028 -0.82785,2.2301 -0.34471,0.44777 -0.8411,0.80565 -1.38522,0.96488 -0.60921,0.17827 -1.30788,0.133 -1.93526,-0.0602 -1.70842,-0.52594 -3.26375,-1.65298 -4.615,-2.87926 -1.80345,-1.63672 -3.27489,-3.67637 -4.46846,-5.80251 -1.94161,-3.45865 -3.33661,-7.24441 -4.24252,-11.06667 -0.88257,-3.72373 -1.11042,-11.34246 -1.11042,-11.34246 z"
         id="path25"
         sodipodi:nodetypes="caaaaaaaaaaaacc"
         inkscape:label="shadow1" /><path
         style="display:inline;opacity:1;fill:#012138;fill-opacity:1;stroke:none;stroke-width:0.208109px;stroke-linecap:butt;stroke-linejoin:miter;stroke-opacity:1"
         d="m 137.54011,138.52483 c 0,0 3.25127,4.8643 4.98334,7.22055 0.55024,0.74852 1.07808,1.52093 1.71687,2.19535 0.68661,0.72491 1.45713,1.37138 2.25579,1.97027 0.68814,0.51602 1.44763,0.92897 2.17373,1.38986 0.71706,0.45516 1.48977,0.83095 2.15567,1.35837 0.5613,0.44458 1.20996,0.86683 1.53121,1.50698 0.27508,0.54816 0.34295,1.21635 0.25086,1.82221 -0.0665,0.43765 -0.26427,0.8763 -0.56392,1.20147 -0.3355,0.36407 -0.80905,0.61484 -1.2885,0.73819 -1.30559,0.3359 -2.72465,0.20883 -4.04537,-0.0666 -1.76274,-0.36765 -3.43628,-1.16312 -4.98877,-2.07768 -2.08095,-1.22588 -3.97852,-2.78558 -5.68035,-4.50057 -1.86118,-1.87556 -4.87533,-6.25129 -4.87533,-6.25129 z"
         id="path26"
         sodipodi:nodetypes="caaaaaaaaaaaacc"
         transform="matrix(1.1043056,0.63134306,-0.63265563,1.1020145,57.661471,-101.33774)"
         inkscape:label="foot1" /><path
         style="display:inline;opacity:1;fill:url(#linearGradient27);stroke:none;stroke-width:0.0905927px;stroke-linecap:butt;stroke-linejoin:miter;stroke-opacity:1"
         d="m 117.95073,139.65297 c 0.81071,0.4447 0.56773,1.76431 0.74816,2.6712 0.0862,0.43329 0.0713,0.88521 0.15826,1.31585 0.0935,0.46289 0.23144,0.9132 0.38846,1.35049 0.13529,0.37678 0.31552,0.72782 0.47478,1.09078 0.15727,0.35846 0.34941,0.69724 0.47477,1.07347 0.10569,0.31713 0.24589,0.64573 0.23021,0.98689 -0.0134,0.29213 -0.12198,0.58481 -0.27337,0.81376 -0.10933,0.16538 -0.26412,0.30005 -0.43161,0.36359 -0.18753,0.0711 -0.40027,0.0626 -0.58988,0 -0.51633,-0.17056 -0.98035,-0.55968 -1.38119,-0.98688 -0.53498,-0.57019 -0.95473,-1.29632 -1.30924,-2.04305 -0.47519,-1.0009 -0.96928,-2.08661 -1.06918,-3.20995 -0.0825,-0.92797 -0.20604,-2.05958 0.40145,-2.7659 0.49476,-0.57524 1.51314,-1.02515 2.17838,-0.66025 z"
         id="path27"
         sodipodi:nodetypes="aaaaaaaaaaaaaaa"
         inkscape:label="fglint1" /></g></g><g
     id="g1"
     inkscape:label="Head"
     transform="matrix(1.1043056,0.63134306,-0.63265563,1.1020145,57.661471,-101.33774)"
     style="display:inline;opacity:1"
     inkscape:highlight-color="#012138"><ellipse
       style="display:inline;opacity:1;fill:#ffffff;fill-opacity:1;stroke:#012138;stroke-width:3.39;stroke-linecap:round;stroke-linejoin:round;stroke-dasharray:none;stroke-opacity:1"
       id="ellipse19"
       cx="79.863464"
       cy="166.29448"
       rx="15.389009"
       ry="13.313357"
       inkscape:label="Head"
       transform="rotate(-25.887146)" /><path
       style="fill:none;stroke:#012138;stroke-width:1.565;stroke-linecap:round;stroke-linejoin:miter;stroke-dasharray:none;stroke-opacity:1"
       d="m 140.95978,121.78409 c 4.48777,0.25683 8.71658,-0.574 11.98481,-5.43926"
       id="path20"
       sodipodi:nodetypes="cc"
       inkscape:label="mouth" /><ellipse
       style="display:inline;opacity:1;fill:#012138;fill-opacity:1;stroke:none;stroke-width:4.62861;stroke-linecap:round;stroke-linejoin:round;stroke-dasharray:none;stroke-opacity:1"
       id="path19-0"
       cx="138.65961"
       cy="113.76146"
       rx="2.6075504"
       ry="2.1874967"
       inkscape:label="eye2" /><ellipse
       style="display:inline;opacity:1;fill:#012138;fill-opacity:1;stroke:none;stroke-width:4.62861;stroke-linecap:round;stroke-linejoin:round;stroke-dasharray:none;stroke-opacity:1"
       id="path19"
       cx="149.03078"
       cy="109.64751"
       rx="2.6075504"
       ry="2.1874967"
       inkscape:label="eye1" /><ellipse
       style="display:inline;fill:#ffffff;fill-opacity:1;stroke:#012138;stroke-width:2.065;stroke-linecap:round;stroke-linejoin:round;stroke-dasharray:none"
       id="path3"
       cx="149.76401"
       cy="77.716873"
       rx="6.4072628"
       ry="6.4533582"
       transform="matrix(0.68177787,-0.39058989,0.39140193,0.68319529,0.35147266,91.755453)"
       inkscape:label="antenna_l2" /><path
       style="display:inline;fill:none;stroke:#012138;stroke-width:2.065;stroke-linecap:butt;stroke-linejoin:miter;stroke-dasharray:none;stroke-opacity:1"
       d="m 155.86012,75.752053 c -0.23584,-0.671991 -0.73379,-2.221805 -1.30222,-3.174823 -0.81672,-1.369291 -1.332,-2.11575 -2.55829,-3.042297 -0.53466,-0.321805 -1.20637,-0.651036 -2.07429,-0.991052 -1.02338,-0.400916 -1.87512,-0.6143 -2.81184,-0.691429 -1.25077,-0.04444 -2.37419,0.02106 -3.71067,0.276571 -0.86174,0.16475 -1.74522,0.509507 -2.56406,0.973768 -0.79829,0.452608 -2.03113,1.477334 -2.57838,2.192157 -0.80109,1.046394 -1.56027,2.24829 -2.14343,3.834986 -0.56654,1.541463 -0.94353,2.67622 -1.14961,4.338563 -0.0836,0.674353 -0.0977,2.093694 -0.0461,3.042297 0.0926,1.704326 0.19788,2.44098 0.71448,3.91811 0.2789,0.774115 0.62005,1.763468 0.99106,2.742677 0.35648,0.940863 0.64204,1.556644 1.14664,2.702345 1.0161,2.307057 1.28651,2.849549 2.33362,5.133876 0.37848,0.826114 0.5876,1.359727 1.38862,2.506438"
       id="path4"
       sodipodi:nodetypes="cssssssssssssscc"
       transform="matrix(0.68177787,-0.39058989,0.39140193,0.68319529,0.35147266,91.755453)"
       inkscape:label="antenna_l1" /><ellipse
       style="display:inline;opacity:1;fill:#ffffff;fill-opacity:1;stroke:#012138;stroke-width:2.065;stroke-linecap:round;stroke-linejoin:round;stroke-dasharray:none"
       id="path3-1"
       cx="174.26744"
       cy="85.41024"
       rx="6.4072628"
       ry="6.4533582"
       transform="matrix(0.68177787,-0.39058989,0.39140193,0.68319529,0.35147266,91.755453)"
       inkscape:label="antenna_r2" /><path
       style="display:inline;fill:none;stroke:#012138;stroke-width:2.065;stroke-linecap:butt;stroke-linejoin:miter;stroke-dasharray:none;stroke-opacity:1"
       d="m 180.42888,87.327252 c 0.0869,-0.706854 0.32896,-2.316602 0.24281,-3.422911 -0.12382,-1.589545 -0.2541,-2.487179 -0.9415,-3.861866 -0.33618,-0.525737 -0.79187,-1.118978 -1.41858,-1.809001 -0.73896,-0.813616 -1.4074,-1.382991 -2.21248,-1.868008 -1.10098,-0.595167 -2.13668,-1.035283 -3.44765,-1.399742 -0.84528,-0.234996 -1.78998,-0.318356 -2.72981,-0.26594 -0.91625,0.0511 -2.47589,0.421895 -3.28363,0.819412 -1.1824,0.581906 -2.39629,1.321755 -3.62332,2.484547 -1.19205,1.129642 -2.03367,1.979027 -2.95642,3.377026 -0.37431,0.567118 -1.01714,1.832621 -1.3921,2.705504 -0.67376,1.568231 -0.9065,2.275037 -1.09946,3.827954 -0.0937,0.817467 -0.22732,1.855427 -0.32977,2.897539 -0.0983,1.001316 -0.11584,1.679863 -0.17244,2.930479 -0.11389,2.518334 -0.11247,3.124483 -0.18849,5.636222 -0.0277,0.908253 -0.0772,1.479233 0.13138,2.862383"
       id="path5"
       sodipodi:nodetypes="cssssssssssssscc"
       transform="matrix(0.68177787,-0.39058989,0.39140193,0.68319529,0.35147266,91.755453)"
       inkscape:label="antenna_r1" /></g></svg>
